<mxfile host="65bd71144e">
    <diagram id="Eyig_QvqLNCVA33oXVlY" name="Page-1">
        <mxGraphModel dx="1086" dy="651" grid="1" gridSize="10" guides="1" tooltips="1" connect="1" arrows="1" fold="1" page="1" pageScale="1" pageWidth="827" pageHeight="1169" math="0" shadow="0">
            <root>
                <mxCell id="0"/>
                <mxCell id="1" parent="0"/>
                <mxCell id="2" value="http://ics2o.mths.ca" style="swimlane;whiteSpace=wrap;html=1;" parent="1" vertex="1">
                    <mxGeometry x="40" y="40" width="760" height="480" as="geometry"/>
                </mxCell>
                <mxCell id="4" value="activity:" style="text;html=1;align=center;verticalAlign=middle;resizable=0;points=[];autosize=1;strokeColor=none;fillColor=none;" parent="2" vertex="1">
                    <mxGeometry x="65" y="70" width="60" height="30" as="geometry"/>
                </mxCell>
                <mxCell id="5" value="random activity" style="text;html=1;align=center;verticalAlign=middle;resizable=0;points=[];autosize=1;strokeColor=none;fillColor=none;" parent="2" vertex="1">
                    <mxGeometry x="330" y="35" width="100" height="30" as="geometry"/>
                </mxCell>
                <mxCell id="6" value="activity type:" style="text;html=1;align=center;verticalAlign=middle;resizable=0;points=[];autosize=1;strokeColor=none;fillColor=none;" vertex="1" parent="2">
                    <mxGeometry x="50" y="100" width="90" height="30" as="geometry"/>
                </mxCell>
            </root>
        </mxGraphModel>
    </diagram>
</mxfile>